# xmcd
#
# Track frame offsets: 
#        150
#        16764
#        32630
#        50275
#        62914
#        78948
#        96168
#        128396
#        159479
#        172395
#        192130
#        210570
#        259269
#
# Disc length: 4440 seconds
#
# Revision: 2
# Processed by: cddbd v1.5.2PL0 Copyright (c) Steve Scherf et al.
# Submitted via: ExactAudioCopy v0.99pb5
#
DISCID=a511560d
DTITLE=N*E*R*D - Fly Or Die
DYEAR=2004
DGENRE=Rap
TTITLE0=Don't Worry About It
TTITLE1=Fly Or Die
TTITLE2=Jump (feat. Joel Madden and Benji Madden)
TTITLE3=Backseat Love
TTITLE4=Drill Sergeant
TTITLE5=Breakout
TTITLE6=The Way She Dances
TTITLE7=Drill Sergeant
TTITLE8=Thrasher
TTITLE9=Maybe (feat. Lenny Kravitz and ?uestlove)
TTITLE10=The Way She Dances
TTITLE11=Chariot Of Fire
TTITLE12=Data
EXTD=
EXTT0=
EXTT1=
EXTT2=
EXTT3=
EXTT4=
EXTT5=
EXTT6=
EXTT7=
EXTT8=
EXTT9=
EXTT10=
EXTT11=
EXTT12=
PLAYORDER=
